<svg width="68" height="53" viewBox="0 0 68 53" fill="none" xmlns="http://www.w3.org/2000/svg">
<path d="M48.7611 41.8986H25.2222C24.5687 41.8986 23.9419 41.6389 23.4797 41.1768C23.0176 40.7147 22.7579 40.0879 22.7579 39.4343C22.7579 38.7807 23.0176 38.1539 23.4797 37.6918C23.9419 37.2296 24.5687 36.97 25.2222 36.97H48.7611C49.4147 36.97 50.0415 37.2296 50.5036 37.6918C50.9657 38.1539 51.2254 38.7807 51.2254 39.4343C51.2254 40.0879 50.9657 40.7147 50.5036 41.1768C50.0415 41.6389 49.4147 41.8986 48.7611 41.8986ZM62.3245 41.8986H61.7331C61.0795 41.8986 60.4527 41.6389 59.9906 41.1768C59.5284 40.7147 59.2688 40.0879 59.2688 39.4343C59.2688 38.7807 59.5284 38.1539 59.9906 37.6918C60.4527 37.2296 61.0795 36.97 61.7331 36.97H62.3245C62.4867 36.9726 62.6477 36.9429 62.7983 36.8827C62.9489 36.8224 63.086 36.7328 63.2016 36.6191C63.3172 36.5053 63.409 36.3697 63.4716 36.2201C63.5343 36.0705 63.5665 35.9099 63.5665 35.7477V27.2903C63.5657 27.013 63.4721 26.7439 63.3006 26.526C63.1291 26.308 62.8896 26.1537 62.6202 26.0877H48.0908C46.4577 26.0877 44.8911 25.4403 43.7345 24.2874C42.5779 23.1344 41.9254 21.57 41.9202 19.9369V6.72828C41.9229 6.56703 41.8931 6.4069 41.8326 6.2574C41.7721 6.1079 41.6822 5.97209 41.5682 5.85806C41.4541 5.74402 41.3183 5.65409 41.1688 5.59361C41.0193 5.53312 40.8592 5.50333 40.6979 5.506H11.6588C11.0052 5.506 10.3784 5.24637 9.91629 4.78422C9.45415 4.32208 9.19452 3.69528 9.19452 3.04171C9.19452 2.38814 9.45415 1.76134 9.91629 1.2992C10.3784 0.837053 11.0052 0.577423 11.6588 0.577423H40.6979C41.5057 0.577423 42.3055 0.73652 43.0518 1.04563C43.798 1.35474 44.4761 1.80781 45.0473 2.37897C45.6184 2.95013 46.0715 3.62819 46.3806 4.37445C46.6897 5.12071 46.8488 5.92054 46.8488 6.72828V19.8974C46.8488 20.0596 46.881 20.2202 46.9437 20.3698C47.0063 20.5194 47.0981 20.655 47.2137 20.7688C47.3293 20.8825 47.4664 20.9721 47.617 21.0324C47.7676 21.0926 47.9286 21.1223 48.0908 21.1197H62.3245C62.7746 21.1256 63.2233 21.1717 63.6651 21.2577L64.0988 21.3957C65.3753 21.7689 66.4952 22.5483 67.2886 23.6157C68.082 24.6831 68.5056 25.9801 68.4951 27.31V35.7674C68.4847 37.3971 67.83 38.9565 66.6739 40.1052C65.5178 41.2539 63.9542 41.8986 62.3245 41.8986Z" fill="white"/>
<path d="M63.1711 26.1662C62.6645 26.1661 62.1704 26.0086 61.7572 25.7155C61.344 25.4224 61.032 25.0081 60.8645 24.53L56.9217 13.5688C56.8155 13.4209 56.6767 13.2995 56.516 13.214C56.3553 13.1285 56.177 13.0813 55.9951 13.076H44.3439C43.6904 13.076 43.0636 12.8163 42.6014 12.3542C42.1393 11.892 41.8797 11.2652 41.8797 10.6117C41.8797 9.9581 42.1393 9.3313 42.6014 8.86916C43.0636 8.40701 43.6904 8.14738 44.3439 8.14738H55.9951C57.0876 8.15164 58.1587 8.45056 59.0955 9.01264C60.0323 9.57473 60.8001 10.3791 61.3179 11.3411C61.3787 11.4556 61.4314 11.5742 61.4757 11.696L65.4185 22.874C65.6341 23.4911 65.5977 24.1683 65.3172 24.7588C65.0367 25.3493 64.5348 25.8054 63.9202 26.0282C63.6773 26.1055 63.4256 26.1519 63.1711 26.1662ZM55.2459 52.4257C53.4718 52.4257 51.7376 51.8996 50.2625 50.9139C48.7874 49.9283 47.6377 48.5274 46.9587 46.8883C46.2798 45.2493 46.1022 43.4457 46.4483 41.7057C46.7944 39.9657 47.6487 38.3674 48.9032 37.1129C50.1577 35.8584 51.756 35.0041 53.496 34.658C55.236 34.3119 57.0396 34.4895 58.6786 35.1685C60.3177 35.8474 61.7186 36.9971 62.7042 38.4722C63.6899 39.9473 64.2159 41.6816 64.2159 43.4557C64.2159 45.8347 63.2709 48.1162 61.5887 49.7984C59.9065 51.4806 57.6249 52.4257 55.2459 52.4257ZM55.2459 39.4142C54.4427 39.3946 53.6519 39.6149 52.9744 40.0469C52.297 40.4789 51.7637 41.103 51.4426 41.8396C51.1216 42.5761 51.0273 43.3916 51.172 44.1819C51.3166 44.9723 51.6935 45.7016 52.2546 46.2767C52.8157 46.8518 53.5354 47.2466 54.322 47.4107C55.1085 47.5748 55.9261 47.5007 56.6703 47.198C57.4146 46.8952 58.0517 46.3774 58.5002 45.7109C58.9488 45.0443 59.1886 44.2591 59.1888 43.4557C59.1891 42.4007 58.7769 41.3874 58.0402 40.6322C57.3034 39.8771 56.3006 39.44 55.2459 39.4142ZM18.7154 52.4257C16.9413 52.4257 15.207 51.8996 13.7319 50.9139C12.2568 49.9283 11.1071 48.5274 10.4282 46.8883C9.74925 45.2493 9.57161 43.4457 9.91772 41.7057C10.2638 39.9657 11.1181 38.3674 12.3726 37.1129C13.6271 35.8584 15.2254 35.0041 16.9654 34.658C18.7054 34.3119 20.509 34.4895 22.148 35.1685C23.7871 35.8474 25.188 36.9971 26.1737 38.4722C27.1593 39.9473 27.6854 41.6816 27.6854 43.4557C27.6854 45.8347 26.7403 48.1162 25.0581 49.7984C23.3759 51.4806 21.0944 52.4257 18.7154 52.4257ZM18.7154 39.4142C17.916 39.4142 17.1347 39.6513 16.4701 40.0953C15.8055 40.5394 15.2875 41.1706 14.9816 41.9091C14.6757 42.6476 14.5957 43.4601 14.7516 44.2441C14.9075 45.0281 15.2924 45.7482 15.8576 46.3134C16.4228 46.8786 17.143 47.2635 17.9269 47.4194C18.7109 47.5754 19.5235 47.4953 20.262 47.1895C21.0004 46.8836 21.6316 46.3656 22.0757 45.701C22.5198 45.0364 22.7568 44.255 22.7568 43.4557C22.7568 42.3838 22.331 41.3559 21.5731 40.5979C20.8152 39.84 19.7872 39.4142 18.7154 39.4142Z" fill="white"/>
<path d="M44.344 41.8998C44.0196 41.9024 43.698 41.8405 43.3979 41.7176C43.0977 41.5946 42.825 41.4132 42.5956 41.1839C42.3663 40.9545 42.1849 40.6818 42.0619 40.3816C41.939 40.0815 41.8771 39.7598 41.8797 39.4355V17.8878C41.8797 17.2342 42.1393 16.6074 42.6015 16.1453C43.0636 15.6831 43.6904 15.4235 44.344 15.4235C44.9976 15.4235 45.6244 15.6831 46.0865 16.1453C46.5487 16.6074 46.8083 17.2342 46.8083 17.8878V39.4355C46.8109 39.7598 46.749 40.0815 46.626 40.3816C46.5031 40.6818 46.3217 40.9545 46.0924 41.1839C45.863 41.4132 45.5903 41.5946 45.2901 41.7176C44.99 41.8405 44.6683 41.9024 44.344 41.8998ZM19.09 17.9666H2.94399C2.29042 17.9666 1.66362 17.707 1.20148 17.2449C0.739335 16.7827 0.479706 16.1559 0.479706 15.5024C0.479706 14.8488 0.739335 14.222 1.20148 13.7598C1.66362 13.2977 2.29042 13.0381 2.94399 13.0381H19.09C19.7436 13.0381 20.3704 13.2977 20.8325 13.7598C21.2946 14.222 21.5543 14.8488 21.5543 15.5024C21.5543 16.1559 21.2946 16.7827 20.8325 17.2449C20.3704 17.707 19.7436 17.9666 19.09 17.9666ZM22.126 28.9672H13.6883C13.0347 28.9672 12.4079 28.7076 11.9458 28.2454C11.4836 27.7833 11.224 27.1565 11.224 26.5029C11.224 25.8494 11.4836 25.2226 11.9458 24.7604C12.4079 24.2983 13.0347 24.0386 13.6883 24.0386H22.126C22.7796 24.0386 23.4064 24.2983 23.8685 24.7604C24.3306 25.2226 24.5903 25.8494 24.5903 26.5029C24.5903 27.1565 24.3306 27.7833 23.8685 28.2454C23.4064 28.7076 22.7796 28.9672 22.126 28.9672Z" fill="white"/>
</svg>
