<svg width="53" height="53" viewBox="0 0 53 53" fill="none" xmlns="http://www.w3.org/2000/svg">
<g clip-path="url(#clip0_2_108)">
<path d="M44.02 25.0846C43.518 25.0846 43.0365 24.8852 42.6815 24.5302C42.3266 24.1752 42.1271 23.6938 42.1271 23.1918V17.8463C42.1271 10.2749 35.1311 4.21776 26.53 4.21776C17.9288 4.21776 10.9328 10.3506 10.9328 17.8463V23.1918C10.9328 23.6938 10.7334 24.1752 10.3784 24.5302C10.0235 24.8852 9.54201 25.0846 9.03999 25.0846C8.53797 25.0846 8.05652 24.8852 7.70154 24.5302C7.34656 24.1752 7.14713 23.6938 7.14713 23.1918V17.8463C7.14713 8.21547 15.8543 0.371475 26.53 0.371475C37.2057 0.371475 45.9128 8.21547 45.9128 17.8463V23.1918C45.9149 23.4409 45.8673 23.6879 45.7729 23.9185C45.6785 24.1491 45.5391 24.3585 45.3629 24.5347C45.1868 24.7109 44.9773 24.8502 44.7467 24.9446C44.5162 25.0391 44.2691 25.0866 44.02 25.0846Z" fill="white" stroke="white" stroke-width="0.5"/>
<path d="M38.9022 42.8998C38.4002 42.8998 37.9187 42.7004 37.5637 42.3454C37.2087 41.9905 37.0093 41.509 37.0093 41.007V23.0324C37.025 22.541 37.2314 22.0749 37.5847 21.733C37.938 21.391 38.4105 21.1999 38.9022 21.2001C45.4287 21.2001 50.7439 26.0913 50.7439 32.0878C50.7439 38.0844 45.4287 42.8998 38.9022 42.8998ZM40.795 25.1221V38.9173C42.4522 38.6429 43.9657 37.8099 45.0841 36.5565C46.2025 35.3031 46.8584 33.7049 46.943 32.0273C46.8618 30.347 46.2074 28.7452 45.0887 27.4888C43.97 26.2323 42.4547 25.3971 40.795 25.1221ZM14.0982 42.8998C7.5716 42.8998 2.25645 38.0238 2.25645 32.0273C2.25645 26.0307 7.5716 21.2001 14.0982 21.2001C14.6002 21.2001 15.0816 21.3996 15.4366 21.7545C15.7916 22.1095 15.991 22.591 15.991 23.093V41.007C15.991 41.509 15.7916 41.9905 15.4366 42.3454C15.0816 42.7004 14.6002 42.8998 14.0982 42.8998ZM12.2053 25.1221C10.5457 25.3971 9.03031 26.2323 7.91164 27.4888C6.79298 28.7452 6.13853 30.347 6.05731 32.0273C6.1419 33.7049 6.79785 35.3031 7.91623 36.5565C9.03461 37.8099 10.5481 38.6429 12.2053 38.9173V25.1221Z" fill="white" stroke="white" stroke-width="0.5"/>
<path d="M38.2817 49.0622H32.0125C31.5105 49.0622 31.029 48.8628 30.6741 48.5078C30.3191 48.1528 30.1197 47.6714 30.1197 47.1694C30.1197 46.6673 30.3191 46.1859 30.6741 45.8309C31.029 45.4759 31.5105 45.2765 32.0125 45.2765H38.2817C39.2616 45.2765 40.2014 44.8872 40.8943 44.1943C41.5872 43.5014 41.9765 42.5616 41.9765 41.5816V40.7488C41.9765 40.2468 42.1759 39.7653 42.5309 39.4103C42.8859 39.0554 43.3674 38.8559 43.8694 38.8559C44.3714 38.8559 44.8528 39.0554 45.2078 39.4103C45.5628 39.7653 45.7622 40.2468 45.7622 40.7488V41.5816C45.7622 43.5656 44.9741 45.4683 43.5712 46.8712C42.1683 48.2741 40.2656 49.0622 38.2817 49.0622Z" fill="white" stroke="white" stroke-width="0.5"/>
<path d="M28.7713 52.6218H25.031C23.6575 52.6218 22.3402 52.0762 21.369 51.105C20.3978 50.1337 19.8522 48.8165 19.8522 47.4429V47.2309C19.8562 45.8601 20.4036 44.5467 21.3744 43.5787C22.3451 42.6108 23.6601 42.0672 25.031 42.0672H28.7713C30.1408 42.0672 31.4542 42.6113 32.4226 43.5796C33.391 44.548 33.935 45.8614 33.935 47.2309V47.4429C33.935 48.8138 33.3915 50.1288 32.4235 51.0996C31.4556 52.0704 30.1422 52.6178 28.7713 52.6218ZM25.0613 45.8529C24.6944 45.8529 24.3424 45.9976 24.0815 46.2556C23.8207 46.5136 23.6721 46.8641 23.6682 47.2309V47.4429C23.6682 47.8124 23.8149 48.1668 24.0762 48.428C24.3375 48.6893 24.6918 48.8361 25.0613 48.8361H28.7713C29.1382 48.8321 29.4886 48.6836 29.7466 48.4227C30.0046 48.1619 30.1493 47.8098 30.1493 47.4429V47.2309C30.1493 46.8655 30.0041 46.515 29.7457 46.2566C29.4873 45.9981 29.1368 45.8529 28.7713 45.8529H25.0613Z" fill="white" stroke="white" stroke-width="0.5"/>
</g>
<defs>
<clipPath id="clip0_2_108">
<rect width="53" height="53" fill="white"/>
</clipPath>
</defs>
</svg>
