<svg width="71" height="54" viewBox="0 0 71 54" fill="none" xmlns="http://www.w3.org/2000/svg">
<path d="M42.2218 1.00008C39.9499 1.00008 37.6757 1.86076 35.9435 3.58632C32.4792 7.03698 32.4792 12.6514 35.9435 16.1023C35.9539 16.1115 35.9645 16.1205 35.9751 16.1294L48.7032 27.9819C48.9163 28.1811 49.1969 28.2923 49.4886 28.2933H49.5021H49.5112C49.8029 28.2923 50.0834 28.1811 50.2965 27.9819L63.0291 16.1294C66.6428 12.7651 66.5209 7.03721 63.0562 3.58632C62.9479 3.47774 62.819 3.39182 62.6771 3.33356H62.6726C59.1895 0.212667 53.8555 0.247273 50.5041 3.58632L49.4976 4.58832L48.4956 3.58632C46.7635 1.86076 44.4937 1.00008 42.2218 1.00008ZM42.2218 3.28843V3.29294C43.898 3.29294 45.5735 3.93685 46.8662 5.22472L48.6852 7.03464C48.9017 7.24988 49.1946 7.37068 49.4999 7.37068C49.8052 7.37068 50.0981 7.24988 50.3146 7.03464L52.1335 5.22472C54.7191 2.64851 58.8368 2.64897 61.4223 5.22472C61.4253 5.22474 61.4283 5.22474 61.4313 5.22472C64.0121 7.80001 64.09 11.9826 61.4539 14.4368L49.5021 25.5626L37.5774 14.4639C34.992 11.8884 34.992 7.79527 37.5774 5.22021C38.8702 3.93234 40.5457 3.28843 42.2218 3.28843ZM2.1554 22.3806C1.84896 22.3806 1.55508 22.5024 1.3384 22.719C1.12171 22.9357 0.99997 23.2296 0.999939 23.536V47.0695C0.99997 47.3759 1.12171 47.6698 1.3384 47.8865C1.55508 48.1032 1.84896 48.2249 2.1554 48.225H8.47431H14.7977C15.1042 48.2249 15.3981 48.1032 15.6147 47.8865C15.8314 47.6698 15.9532 47.3759 15.9532 47.0695V45.3679L37.5368 52.6798C37.5666 52.6885 37.5967 52.6961 37.6271 52.7024C40.1403 53.3399 43.0393 52.9617 45.2324 51.4882L67.5833 39.3424C67.5893 39.3424 67.5953 39.3424 67.6013 39.3424L68.1475 39.0309C70.0127 37.9758 70.8125 35.6789 69.9799 33.7095C69.2712 32.0334 67.8781 31.2642 66.7889 31.1052V31.0962C65.6997 30.9367 64.8075 31.2451 64.8075 31.2451C64.769 31.2597 64.7313 31.2762 64.6946 31.2948L52.3727 37.0089C52.3887 36.853 52.4224 36.7039 52.4224 36.544C52.4224 33.9479 50.2718 31.8364 47.6651 31.8364H37.4059C37.3617 31.7578 37.311 31.6469 37.2705 31.5746C37.0871 31.2432 36.8885 30.9238 36.6747 30.6132C36.2469 29.9918 35.7596 29.4121 35.2214 28.8846C33.0683 26.7752 30.084 25.4769 26.8037 25.4769H15.9532V23.536C15.9532 23.2296 15.8314 22.9357 15.6147 22.719C15.3981 22.5024 15.1042 22.3806 14.7977 22.3806H8.47431H2.1554ZM3.31086 24.6915H8.47431H13.6423V45.914H8.47431H3.31086V24.6915ZM15.9532 27.7878H26.8037C29.4765 27.7878 31.8696 28.8401 33.601 30.5365C34.034 30.9608 34.4271 31.4241 34.77 31.9222C34.9417 32.1715 35.1017 32.4287 35.2485 32.694C35.4295 33.0214 35.5525 33.2208 35.6502 33.4477L35.9481 34.1473H36.9636H47.6651C49.0492 34.1473 50.1115 35.206 50.1115 36.544C50.1115 37.5475 49.5137 38.3874 48.631 38.7466L48.6175 38.7511C48.3266 38.8676 48.0062 38.9361 47.6651 38.9361H31.5925V41.2471H47.6651C48.1481 41.2471 48.6054 41.1513 49.0463 41.0169C49.1835 41.0077 49.318 40.974 49.4435 40.9176L65.5702 33.4387C65.5899 33.4387 65.9712 33.3129 66.4549 33.3845C66.9508 33.4562 67.4272 33.5926 67.8541 34.6032C68.2356 35.5056 67.8918 36.5147 67.01 37.0134L66.4684 37.3158L44.0363 49.5113C44.0038 49.5293 43.9721 49.5489 43.9415 49.57C42.4176 50.594 40.0511 50.9319 38.2003 50.4637H38.1958L15.9532 42.9306V27.7878Z" fill="white" stroke="white" stroke-width="0.5"/>
</svg>
